<svg width="94" height="31" viewBox="0 0 94 31" fill="none" xmlns="http://www.w3.org/2000/svg">
<path d="M24.4259 12.556C23.785 12.1543 23.3936 11.8824 23.2515 11.7403C22.8952 11.7403 22.5747 11.5984 22.2899 11.3146H21.7199C21.3158 11.1257 20.7937 10.9838 20.1533 10.8891L19.8334 10.7116C18.9791 10.7111 18.3973 10.6284 18.0879 10.4633C17.803 10.5819 17.5776 10.6411 17.4116 10.6408C17.2692 10.6408 16.9962 10.5699 16.5925 10.428C16.3885 10.4251 16.1889 10.4872 16.0229 10.6052C15.8565 10.3693 15.4886 10.2511 14.9191 10.2506H14.2056L14.1345 10.1442L12.7812 10.3569L11.6061 10.2506H10.8955L9.64925 9.8942L10.1126 9.82851L10.7181 9.50473H11.4658L12.1779 9.11453C12.7946 9.11453 13.4118 8.96086 14.0294 8.6535L14.7058 8.54713L15.1688 7.94418L15.2399 7.97948L15.9877 7.73119C16.1308 7.73336 16.2736 7.74523 16.4151 7.76673L17.1628 7.27016L17.4475 7.34123L18.0173 7.0226C18.5393 6.92849 19.0615 6.58535 19.5839 5.99319L20.1538 4.96377L19.9053 3.86621L19.1575 3.40493L18.9437 2.9086H18.1236L17.8385 2.62478L17.1266 2.41178C16.9134 2.41178 16.6523 2.35271 16.3432 2.23458L15.9161 1.84438L14.8827 1.80884C14.6452 1.57289 14.3722 1.45467 14.0638 1.45418L13.8857 1.24143L13.0312 1.38334C12.8648 1.38334 12.5444 1.33882 12.0699 1.24976L11.7857 1.11619C11.548 0.960302 11.2276 0.860138 10.8244 0.815693H9.22211L7.15679 0.567406L6.1598 0.212747L5.91056 0.283826L5.73291 0.141913C5.42404 0.141913 5.06793 0.189217 4.66457 0.283826C4.18921 0.189544 3.4299 0.14224 2.38666 0.141913L2.31531 0.177452L1.92262 0H1.7804C1.32915 0 0.984683 0.189135 0.747001 0.567406C0.249 0.662995 0 0.946821 0 1.41888C0 1.93931 0.585265 2.54226 1.7558 3.22772L2.45851 2.80198L2.80962 3.33336L3.40653 2.94316L3.54678 3.12061L3.93332 2.87233L4.28443 3.12061L4.67048 2.80198L4.70615 2.83752L4.9522 3.68875L5.12813 3.97258V4.78827L5.34169 4.93019L5.27059 5.28485L5.69773 6.13608L5.73291 6.95202L5.62613 7.2356L5.83969 7.76771L5.73291 7.90962L5.87537 8.44173L5.59045 8.54811L5.83969 9.32851C5.60201 9.47017 5.47144 9.55294 5.44799 9.57679C4.87847 9.90817 4.534 10.3575 4.41459 10.9248C4.50923 11.2794 4.94843 11.6577 5.73217 12.0597L5.7676 12.5562C5.86225 12.8639 5.94533 13.1477 6.01685 13.4077L5.91006 14.1879L6.05277 14.6486L5.73291 15.2163L5.9108 16.0354L5.73291 16.6318V18.0693L6.33819 19.1688C6.24297 19.1916 6.19573 19.2377 6.19573 19.3063C6.19633 19.3543 6.20857 19.4015 6.2314 19.4438V19.5467C6.2314 19.5694 6.20762 19.6038 6.16005 19.6499L6.94347 19.3661L7.08593 20.0279L7.65553 20.3587L8.33216 20.1364L8.90176 19.5075C8.949 19.5075 9.02035 19.5546 9.11557 19.6494H9.29347C9.74423 19.6494 10.1359 19.4839 10.4686 19.1528L10.6822 19.4011C10.8957 19.3303 11.0266 19.271 11.0739 19.2237V19.1889L11.8216 19.5075L12.4626 18.9754L12.9611 19.082L13.6008 19.0109L13.85 18.869L14.4922 19.0114L14.7415 18.8342L15.1319 19.047L16.1653 18.3021L16.4146 18.444C17.0555 18.3259 17.6132 18.1012 18.0877 17.77L18.5862 17.8411L18.9779 17.5928H19.9053L20.4392 17.0251L21.4726 16.9188L22.1827 16.4217L23.0018 16.2445L23.4646 15.5705L23.8912 15.4658L24.0337 15.0048L24.6746 14.4727L24.8171 13.7633L24.9596 13.3376C24.9599 13.053 24.782 12.7924 24.4259 12.556ZM8.33191 4.17871V3.33336L8.47437 3.26302L9.15076 3.5113L9.36457 3.33336L9.50679 3.3689L9.8985 3.29782L10.3259 3.68802L11.146 3.58238C11.6917 3.6533 12.0834 3.68875 12.3211 3.68875H12.499L13.1744 4.04415L13.4236 3.90224L14.0289 4.07969L14.741 4.6118L15.1319 4.32724C15.2745 4.37479 15.4406 4.42209 15.6304 4.46915L15.9865 4.64636H16.3782L16.6274 4.93019L16.7342 4.96573V5.24955C16.3543 5.3203 16.0339 5.46213 15.7729 5.67505H15.6661L14.7045 5.95887C14.6096 6.0775 14.5028 6.13608 14.3847 6.13608H14.2422C13.8157 6.13608 13.4122 6.3253 13.0317 6.70373L12.8535 6.84564H12.4266C12.2134 7.09221 11.7386 7.30463 11.0023 7.4829H10.1126L10.0415 7.78339L9.61407 8.12139L9.64974 8.01501C9.4037 8.06289 9.2199 8.11019 9.09835 8.15693H8.5103V8.0883L8.72411 7.48976L8.5103 6.92603V6.18608L8.3324 5.37578L8.5103 4.84759L8.33191 4.17871ZM21.648 13.9749L21.3978 14.4006L20.6117 14.6133L20.3255 15.0036L19.9318 15.1808H19.4321C19.1462 15.5466 18.7052 15.741 18.1091 15.7638L16.8941 15.832L16.0362 16.2094L15.5362 16.1739L14.6782 16.5286L13.6773 16.8472L12.6764 16.8117L12.0689 17.0955C11.9021 17.143 11.7831 17.2021 11.7119 17.2727L11.4614 17.1663L10.4253 17.1325L9.8173 17.3445L8.81663 17.3798L8.74527 16.8291L8.638 16.7555L8.60232 16.5722L8.92218 16.0085L8.83311 15.3575L8.57501 14.9408L8.6439 14.4344L8.5103 14.1861L8.7593 13.655L8.51005 13.1584V12.6266C8.51005 12.2251 8.71296 12.0243 9.11877 12.0241C9.16667 12.0717 9.29789 12.1662 9.51245 12.3077L11.0872 12.4496L11.1228 12.2369L11.6597 12.5915L12.4471 12.4143C12.6619 12.367 12.8407 12.3432 12.9839 12.3432C13.3176 12.3432 13.6875 12.4024 14.0939 12.5207L15.3106 12.556C15.7489 12.624 16.1917 12.6596 16.6353 12.6626C16.8498 12.7811 17.0409 12.852 17.2083 12.8753C17.3986 12.8753 17.6013 12.8162 17.8163 12.6979C17.9871 12.7477 18.1457 12.8323 18.2821 12.9462L18.9981 12.8753L19.3202 13.1592L20 13.0881L20.8233 13.4428H21.0026L21.1456 13.6202L21.7186 13.691L21.8259 13.7621L21.648 13.9749Z" fill="white"/>
<path d="M37.7074 15.0036H37.5649C37.0425 15.0036 36.6152 15.167 36.283 15.4938C36.212 15.8912 35.9391 16.1367 35.4642 16.2303L35.3574 16.4055C35.1442 16.5224 34.9898 16.6626 34.8943 16.8261L34.0041 17.108L33.826 17.1435L33.47 17.6693L33.2564 17.7391L32.9001 17.9842L32.1883 18.0884H30.9777L30.6928 18.0168V17.91L29.9096 17.6962L29.6604 17.4818C29.4939 17.4107 29.3752 17.2322 29.3041 16.9462C29.1138 16.8276 29.019 16.673 29.0194 16.4825V16.3754C29.0354 16.3417 29.0454 16.3056 29.049 16.2685C29.069 16.1262 29.079 15.9003 29.079 15.5908L29.1973 15.4832C29.1973 15.317 29.1736 14.9483 29.1262 14.3771L29.3398 13.7702L29.3755 13.3423L29.6604 13.1278C29.7076 12.7477 29.755 12.4624 29.8026 12.2717H29.874L30.5137 12.5903L31.3682 12.2356H31.9378L32.6145 11.8099H32.7212C33.1717 11.8099 33.504 11.6444 33.7182 11.3133C34.3593 10.9826 35.0595 10.5452 35.819 10.0011L35.8547 9.43367L36.531 8.68881L36.8871 7.76649L37.2069 7.55375L37.1002 6.38315L37.2069 6.02849C37.2069 5.24842 36.9339 4.64547 36.3878 4.21965V4.07774L35.7826 3.61671C35.4823 3.46518 35.1963 3.28709 34.928 3.08459L34.6788 2.94268L34.5009 2.97822C34.3385 2.88482 34.1542 2.83586 33.9667 2.83631C33.8004 2.83631 33.3969 2.94252 32.7562 3.15494L32.6137 3.36793C32.4919 3.40698 32.3729 3.45439 32.2577 3.50984C32.0672 3.65151 31.9248 3.80519 31.8303 3.97087C31.3546 4.23133 31.0995 4.37913 31.0648 4.41426C31.0302 4.44939 30.9531 4.56173 30.8333 4.75127L30.5484 4.82211L30.4773 4.99956H30.1924C30.0498 5.44875 29.9786 5.72064 29.9788 5.81525L29.8363 5.95717C29.5037 6.35929 29.2425 6.85587 29.0529 7.44688C28.8866 7.56551 28.78 7.67172 28.733 7.76551H28.6263C28.2702 7.76551 27.9971 7.62368 27.8072 7.34002C27.665 7.64754 27.5938 7.94305 27.5936 8.22655C27.5936 8.34518 27.6352 8.55212 27.7183 8.84739C27.8015 9.14265 27.843 9.33775 27.8428 9.43268C27.8428 9.52729 27.8305 9.59837 27.8072 9.64543C27.4511 9.95311 27.2731 10.3078 27.2732 10.7094L27.38 11.5606V11.7403C27.2609 11.9771 27.2016 12.2017 27.2019 12.4143L27.2732 12.3432L27.024 12.7651L27.0597 13.0116L26.8815 13.5754V14.3136L26.668 14.8773V16.1433L27.0951 17.6906V18.2181L27.5225 18.4997L27.7361 19.0972L28.1634 19.3083V19.4119C28.4003 19.9512 28.97 20.291 29.8725 20.4316L30.1574 20.6073H30.7627C30.9759 20.7254 31.237 20.7846 31.5459 20.7847H31.9733L32.4717 21.2102C32.7567 20.8081 33.0534 20.6071 33.3619 20.6073H33.6818L33.8954 20.3308C34.0612 20.3097 34.2745 20.2482 34.5351 20.1463H34.9268L35.2828 19.5078L35.9595 19.0823L36.6004 18.9757L36.9919 18.3019L37.2057 18.2663C37.4427 18.0304 37.6207 17.723 37.7396 17.3443C38.1669 16.9186 38.3802 16.5639 38.3794 16.28C38.3823 15.9497 38.1583 15.5242 37.7074 15.0036ZM30.7642 9.29273C31.025 9.00891 31.1911 8.66577 31.2627 8.26331L31.5825 8.05057L32.1526 7.05889L32.5443 6.77507L33.1496 5.99467L33.3277 5.92383L33.6476 5.88829L34.0041 5.63952H34.1109C34.1436 5.65882 34.18 5.67094 34.2177 5.67506C34.2673 5.6746 34.3162 5.66242 34.3602 5.63952H34.5026L34.5737 5.60422L34.7519 5.63952C34.8229 5.85194 34.8585 5.99385 34.8587 6.06526C34.8621 6.2103 34.8379 6.35469 34.7873 6.49075L34.324 7.16477L34.2529 7.4834L34.1459 7.59002L33.6843 7.69615V8.08831H33.435L33.2571 8.62018L32.8654 8.47827H32.6509L32.3662 8.904L31.8677 8.86846L31.7609 9.18709L31.5117 9.29347C31.1787 9.29347 30.8819 9.37623 30.6215 9.54175L30.7642 9.29273Z" fill="white"/>
<path d="M62.2391 12.556C61.5982 12.1543 61.2065 11.8824 61.064 11.7403C60.7078 11.7403 60.3874 11.5984 60.1026 11.3146H59.5331C59.129 11.1257 58.6068 10.9838 57.9662 10.8891L57.6464 10.7116C56.7919 10.7116 56.2103 10.6288 55.9016 10.4633C55.6167 10.5819 55.3912 10.6411 55.225 10.6408C55.0828 10.6408 54.8098 10.5699 54.4062 10.428C54.2022 10.4251 54.0026 10.4872 53.8366 10.6052C53.6699 10.3693 53.3019 10.2511 52.7326 10.2506H52.0205L51.9494 10.1442L50.5961 10.3569L49.421 10.2506H48.7089L47.462 9.8942L47.9248 9.82949L48.5301 9.50571H49.2778L49.9913 9.11551C50.6083 9.11551 51.2254 8.96184 51.8428 8.65448L52.5192 8.54811L52.982 7.94516L53.0534 7.98046L53.8011 7.73217C53.9442 7.73435 54.0869 7.74622 54.2283 7.76771L54.976 7.27114L55.2609 7.34222L55.8305 7.02358C56.3525 6.92947 56.8748 6.58633 57.3974 5.99416L57.967 4.96475L57.7177 3.86523L56.97 3.40395L56.7564 2.90762H55.9376L55.6526 2.6238L54.9406 2.4108C54.7273 2.4108 54.4662 2.35173 54.1572 2.2336L53.7298 1.8434L52.6964 1.80786C52.4587 1.57191 52.1857 1.45369 51.8773 1.4532L51.6994 1.24045L50.8449 1.38236C50.6786 1.38236 50.358 1.33784 49.8833 1.24878L49.5986 1.1152C49.361 0.959648 49.0405 0.859484 48.6371 0.814712H47.0348L44.9698 0.566426L43.973 0.212747L43.7238 0.283826L43.5456 0.141913C43.2371 0.141913 42.8811 0.189217 42.4776 0.283826C42.0019 0.189544 41.2422 0.14224 40.1987 0.141913L40.1276 0.177452L39.7361 0H39.5936C39.1425 0 38.7981 0.189135 38.5602 0.567406C38.0617 0.662342 37.8125 0.946168 37.8125 1.41888C37.8125 1.93931 38.3978 2.54226 39.5683 3.22772L40.271 2.80198L40.6219 3.33336L41.219 2.94316L41.359 3.12061L41.7458 2.87233L42.0982 3.12135L42.4842 2.80272L42.5199 2.83826L42.7659 3.68949L42.9416 3.97332V4.78901L43.1554 4.93092L43.0841 5.28558L43.5114 6.13681L43.5469 6.95275L43.4401 7.23633L43.6539 7.76844L43.5469 7.91036L43.6893 8.44247L43.4047 8.54884L43.6539 9.32924C43.4162 9.47091 43.2857 9.55367 43.2622 9.57753C42.6924 9.9089 42.3479 10.3583 42.2288 10.9256C42.3236 11.2802 42.7627 11.6584 43.5461 12.0604L43.5818 12.557C43.6766 12.8646 43.7597 13.1485 43.8311 13.4084L43.7243 14.1886L43.8667 14.6496L43.5469 15.2173L43.725 16.0364L43.5469 16.6327V18.0702L44.1524 19.1698C44.0572 19.1926 44.0099 19.2386 44.0099 19.3073C44.0105 19.3553 44.0226 19.4024 44.0454 19.4448V19.5477C44.0454 19.5705 44.0208 19.6048 43.9743 19.6509L44.7555 19.3661L44.8979 20.0279L45.4675 20.3587L46.1441 20.1364L46.7137 19.5075C46.761 19.5075 46.8323 19.5546 46.9273 19.6494H47.1055C47.5559 19.6494 47.9475 19.4839 48.2803 19.1528L48.4941 19.4011C48.7077 19.3303 48.8386 19.271 48.8856 19.2237V19.1889L49.6333 19.5075L50.2731 18.9754L50.7716 19.082L51.4125 19.0109L51.6618 18.869L52.3015 19.0109L52.5507 18.8337L52.9424 19.0465L53.9758 18.3016L54.2251 18.4435C54.8661 18.3254 55.4238 18.1007 55.8982 17.7695L56.3967 17.8406L56.7884 17.5923H57.714L58.2482 17.0246L59.2816 16.9183L59.9959 16.4217L60.8147 16.2445L61.2778 15.5705L61.7049 15.4641L61.8474 15.0031L62.4883 14.4709L62.6308 13.7616L62.7732 13.3359C62.7732 13.0524 62.5952 12.7924 62.2391 12.556ZM46.1451 4.17871V3.33336L46.2873 3.26302L46.964 3.5113L47.1775 3.33385L47.32 3.36939L47.7117 3.29831L48.1389 3.68851L48.9579 3.58214C49.5037 3.65305 49.8953 3.68851 50.1328 3.68851H50.311L50.9873 4.04415L51.2368 3.90224L51.8421 4.07969L52.5552 4.61107L52.9469 4.32724C53.0893 4.37479 53.2549 4.42209 53.4454 4.46915L53.8014 4.64636H54.1931L54.4423 4.93019L54.5491 4.96573V5.24955C54.1691 5.3203 53.8486 5.46213 53.5878 5.67505H53.4808L52.5195 5.95887C52.4243 6.0775 52.3175 6.13608 52.1996 6.13608H52.0572C51.6299 6.13608 51.2263 6.3253 50.8466 6.70373L50.6685 6.84564H50.2399C50.0266 7.09221 49.5518 7.30463 48.8155 7.4829H47.9253L47.8542 7.78339L47.4268 8.12139L47.4625 8.01501C47.2164 8.06289 47.0326 8.11019 46.9111 8.15693H46.323V8.0883L46.5366 7.48976L46.323 6.92603V6.18608L46.1451 5.37578L46.323 4.84759L46.1451 4.17871ZM59.4612 13.9749L59.2107 14.4006L58.4246 14.6133L58.1387 15.0036L57.745 15.1808H57.2448C56.9589 15.5466 56.5181 15.741 55.9223 15.7638L54.7073 15.832L53.8494 16.2094L53.3491 16.1739L52.4914 16.5286L51.4905 16.8472L50.4896 16.8117L49.8821 17.0955C49.7153 17.143 49.5962 17.2021 49.5248 17.2727L49.2746 17.1663L48.2385 17.1325L47.631 17.3455L46.6301 17.3808L46.559 16.83L46.4515 16.7565L46.416 16.5732L46.7359 16.0094L46.6471 15.3597L46.3887 14.943L46.4579 14.4366L46.3243 14.1883L46.5735 13.6567L46.3243 13.1602V12.6283C46.3243 12.2268 46.5272 12.026 46.933 12.0258C46.9807 12.0734 47.1119 12.1679 47.3267 12.3094L48.9014 12.4513L48.937 12.2386L49.4739 12.5932L50.2613 12.416C50.4761 12.3688 50.6551 12.3451 50.7981 12.345C51.1319 12.345 51.5019 12.4041 51.908 12.5224L53.125 12.5577C53.5632 12.6257 54.0059 12.6613 54.4495 12.6643C54.6642 12.7828 54.8552 12.8537 55.0225 12.8771C55.213 12.8771 55.4157 12.8179 55.6307 12.6996C55.8015 12.7494 55.96 12.8339 56.0963 12.9479L56.8123 12.8771L57.1346 13.1609L57.8144 13.0898L58.6377 13.4445H58.8168L58.9598 13.6219L59.5328 13.6928L59.6403 13.7638L59.4612 13.9749Z" fill="white"/>
<path d="M77.2307 9.64763V9.29297L76.554 7.62629L75.8063 6.66868L75.557 6.52677L75.4859 6.34956C75.0819 5.85299 74.7258 5.46279 74.4176 5.17897H74.1329L73.5988 4.89514H73.3138L72.9221 4.64685L72.4236 4.18582L71.498 4.54048L71.1063 4.50519C70.9185 4.41123 70.7112 4.36262 70.501 4.36327C70.2878 4.36327 70.0504 4.43419 69.789 4.57602H69.3259C69.2309 5.07259 69.0177 5.42725 68.6862 5.64L67.796 5.95863L67.7603 6.77432L67.2251 7.37751H67.0827L67.1184 7.51943C67.039 7.59453 66.9558 7.66554 66.8691 7.73217L66.1214 8.76159C66.1206 9.11947 66.0353 9.47215 65.8721 9.79101V9.93292L65.9789 10.4295C65.9551 10.5004 65.8485 10.6422 65.659 10.855V11.3871L65.5523 11.8837L65.659 12.132H65.474C65.1788 12.6761 65.0188 13.0662 64.9942 13.3023C64.7482 13.5147 64.6252 13.8458 64.6252 14.2955V15.005L64.5184 15.5369L64.6252 16.3881L64.4473 16.8494L64.9812 18.0553L64.8033 18.6227L65.5875 19.4364L66.1214 20.2521L67.6525 20.3585L68.2578 20.6068L68.7563 20.5004H69.2191L69.6814 20.1472L70.0375 20.0408L70.395 19.7918C70.703 19.7918 70.976 19.7209 71.2138 19.5791C71.7596 19.5791 72.1987 19.3308 72.5314 18.8342L72.6736 18.7987C73.1244 18.6805 73.5042 18.4086 73.8131 17.9827L74.4897 17.7345L74.5251 17.309L74.9525 17.0962L75.2374 16.4933L75.6646 16.245L75.807 15.8548L76.092 15.7484L76.3412 14.8616L76.7329 14.4714L76.8397 13.9749L77.0176 13.7266V13.3364L77.2314 12.9817C77.3024 12.627 77.338 12.1423 77.3382 11.5275L77.5518 10.8891L77.2307 9.64763ZM75.0586 11.8699C74.9162 12.1059 74.845 12.33 74.845 12.5423C74.845 12.6601 74.8925 12.8606 74.9874 13.144L74.8093 13.3565L74.6669 13.604L74.2397 13.9577V14.4178L74.0539 14.8072L74.0165 14.9839L73.446 15.2678L73.0547 15.8398L72.3437 16.3403L72.2726 16.5188C71.657 16.7809 71.2661 17.0426 71.1001 17.3041L70.7803 17.3756L70.7092 17.483L70.2473 17.8055L69.9629 17.6992L69.643 17.8055C69.6191 17.7345 69.536 17.699 69.3938 17.6992H69.2518L69.1096 18.0538H67.9001L67.7226 17.9835L67.2246 17.8072L66.9048 17.3489L66.8691 16.855L67.0116 16.3619V15.3749L66.9405 15.1987L67.3319 14.2464V13.4006C67.4513 13.172 67.5576 12.9368 67.6503 12.6962C67.889 12.4838 68.0083 12.2368 68.0083 11.9552L67.8302 11.8494L68.4 11.3207C68.4 11.0393 68.4475 10.7337 68.5425 10.404L68.9696 10.193L69.1121 9.2763L69.4681 9.10007L69.5749 8.71208L70.3226 8.32409L70.7857 7.33707L71.4978 6.56182C71.545 6.65594 71.6402 6.703 71.7827 6.703L72.0674 6.77408L72.8151 7.05717L73.135 7.30496L73.5621 8.01281L73.7759 8.04811C73.7759 8.42556 73.8825 8.66151 74.0958 8.75595C74.1192 8.89779 74.2854 9.08659 74.5943 9.32238L74.7367 9.4991L74.6654 10.1714L74.9852 10.8435L74.8784 11.0204C74.9019 11.2093 74.9968 11.3863 75.1631 11.5513L75.1988 11.7288L75.0586 11.8699Z" fill="white"/>
<path d="M94.0012 13.9393L93.7519 13.8685L93.6449 13.1236L93.3602 12.4851L93.4313 11.9177L93.0753 11.5628V11.3145C92.8139 10.9366 92.6599 10.4756 92.6135 9.93145L92.2575 9.86037L92.1861 9.61208L91.9359 9.36281V8.65447H91.5087L91.2949 8.26427L91.0103 8.08829C90.9235 7.86317 90.7755 7.66659 90.5829 7.52064V7.30789L89.907 7.09392L89.8713 7.02284L89.0168 6.49073L88.5537 5.92332L87.8771 5.71058L87.4854 5.28484L86.702 5.53312L86.7376 5.32038C86.6089 5.29359 86.4775 5.28167 86.3459 5.28484L86.0613 5.07209L85.812 5.17846L85.6339 4.85983C85.352 4.74224 85.0493 4.68191 84.7437 4.68238L84.104 4.22135L83.7841 4.53998L83.2145 3.61791L82.3597 3.44046L82.0399 4.68189L81.8617 4.75297L80.865 4.68189L80.6155 4.93018L79.4746 5.39219L79.2254 5.64048C78.6316 5.6645 78.0025 5.86548 77.3382 6.24342L77.3739 6.77554C77.1367 6.96508 77.0179 7.20152 77.0176 7.48486C77.0176 7.88731 77.6047 8.43119 78.779 9.11649L78.9594 8.76183L79.3189 8.90374L79.7499 8.33633H80.0737L80.4694 7.98143L80.7208 7.94613V8.15888L82.0025 7.59148L82.1093 7.83976L82.0382 8.19442L82.1449 8.58462L82.0382 9.29345L82.1806 9.43512L82.0382 9.96723L82.2163 10.4283L82.0374 11.0295L82.2156 11.5969L82.1811 11.7403V12.1297L82.1454 12.2717V12.4136L82.003 13.1584L81.9319 13.7614L82.1454 13.9388L81.9319 14.6126L82.3236 15.0023L81.9319 15.6761L82.1811 16.1369L81.9319 17.5911L82.1098 18.619L81.7537 19.0092L82.0387 19.3278L81.9319 19.7889L82.1454 20.1435C82.0031 20.6396 81.9319 21.0414 81.9319 21.3489V21.7036C81.8128 21.7744 81.7537 21.8455 81.7537 21.9163C81.7537 21.9634 81.8138 22.046 81.9346 22.1646C82.048 22.2722 82.1326 22.4063 82.1806 22.5548L81.9314 23.1921L82.1093 23.9009L81.9314 24.3264L82.1774 25.1424L81.8398 25.5264L82.0032 26.6066V27.3985L81.6472 28.0463L81.9321 29.6304L81.754 30.7088C82.4429 30.9007 82.8583 30.9967 83.0002 30.9971C83.6645 30.9971 84.0324 30.1694 84.104 28.5142V27.0956L84.3532 26.8117L84.2108 26.3152C84.424 26.1733 84.5306 25.996 84.5306 25.783V24.9318L84.317 24.8254L84.4238 24.4708L84.2814 23.9387L84.5306 23.584L84.4238 22.236L84.5306 21.3492V20.182L84.7442 19.8274L84.6374 19.1533C84.7075 18.9477 84.7435 18.732 84.7442 18.5148V18.3021C84.91 18.2776 85.0052 18.2666 85.0291 18.2666L85.3133 18.4805L86.061 18.4097L86.4171 18.7283L87.3073 18.5156L88.304 18.6575L88.1618 18.5867L88.767 18.5511L88.8738 18.622L89.6572 18.9766L90.3336 18.7283L90.6535 18.693L91.1874 18.5156L91.4012 18.5511C91.7766 18.3484 92.124 18.0981 92.4346 17.8063L93.0756 17.7352L93.1467 17.0614L93.2891 16.9906L93.5731 16.4933L93.7155 15.9256L93.858 15.7129L93.5731 15.0035L94.0012 13.9393ZM91.3306 14.4714L91.1881 14.7197L90.9389 15.0035L91.0457 15.2871L90.8678 15.3582L90.7964 15.8548L90.1284 16.5197C90.1358 16.5254 90.1331 16.5283 90.1198 16.5283L90.1284 16.5197C90.1097 16.5055 90.0241 16.4729 89.8706 16.4217L89.3007 16.067L88.5887 16.2798L88.3037 16.2089H87.9839C87.8215 16.1155 87.6372 16.0666 87.4497 16.067C87.3306 16.067 87.2005 16.1026 87.0582 16.1734C86.8678 16.1263 86.7384 16.1026 86.6665 16.1026H86.5607C86.515 16.1203 86.4671 16.1322 86.4183 16.1379C86.2611 15.9995 86.0582 15.9237 85.8484 15.9251C85.6821 15.9251 85.5515 15.9488 85.4567 15.9962H84.708L84.7434 15.5349L84.6367 15.0383L84.708 14.5773L84.8859 14.1516L84.6367 13.8329C84.8264 13.6911 84.9214 13.5849 84.9216 13.5143C84.9195 13.4869 84.9067 13.4614 84.8859 13.4432L85.0284 13.053C84.7792 12.7462 84.613 12.3679 84.5299 11.9182L84.7791 10.854L84.7434 10.3219L85.1352 9.47066L84.6645 9.00962L84.5299 8.61942V7.51942L85.1708 7.62579L85.3133 7.87407L85.6693 7.80324L85.954 8.08829L86.3103 7.91084H86.8088L86.951 7.94638L87.2005 8.40692L87.5567 8.33609L87.9839 8.9035L88.5537 8.83266L89.1233 9.57752L89.4432 9.71919L89.6924 10.3221L90.1198 10.677L90.654 11.5991L90.7962 11.9893L91.0811 12.5567L91.1168 12.9116L91.2592 13.1952L91.1168 13.5138L91.3304 14.1511L91.2947 14.293L91.3306 14.4714Z" fill="white"/>
<path d="M40.0411 21.0685C39.4063 21.0685 38.8664 21.3176 38.4214 21.8159C37.9857 22.3139 37.7679 22.9441 37.7679 23.7063C37.7679 24.2825 37.8954 24.7536 38.1505 25.1198C38.3503 25.4079 38.6952 25.696 39.1853 25.984C39.3602 26.0862 39.5324 26.1852 39.702 26.2811C39.8717 26.377 40.0416 26.476 40.2119 26.5782C40.6518 26.8904 40.8718 27.2265 40.8718 27.5865C40.8718 28.2107 40.5868 28.5228 40.017 28.5228C39.7321 28.5228 39.4871 28.4084 39.282 28.1796C39.1771 28.0653 39.0246 27.7982 38.8246 27.3784L37.3848 28.1796C37.8946 29.6141 38.762 30.3314 39.987 30.3314C40.7018 30.3314 41.3118 30.0618 41.8168 29.5225C42.3366 28.9531 42.5966 28.2457 42.5968 27.4005C42.5968 26.7411 42.4418 26.2166 42.1318 25.8269C41.8217 25.4372 41.2201 25.0118 40.3268 24.5507C39.6769 24.2208 39.3519 23.888 39.3519 23.5524C39.3519 23.3607 39.4069 23.2034 39.517 23.0806C39.5655 23.0225 39.6262 22.9758 39.6949 22.9439C39.7636 22.912 39.8386 22.8956 39.9144 22.896C40.2395 22.896 40.5119 23.1631 40.7318 23.6972L42.1266 22.8061C41.6717 21.6477 40.9768 21.0685 40.0418 21.0685H40.0411Z" fill="#CB2A30"/>
<path d="M49.6698 26.3223C49.6698 25.0826 49.4041 24.1129 48.8726 23.4132C48.3371 22.7083 47.6086 22.3558 46.6872 22.3558C45.7744 22.3558 45.0416 22.7186 44.4888 23.4441C43.9403 24.1794 43.666 25.1413 43.666 26.3299C43.666 27.5287 43.9489 28.4908 44.5146 29.2159C45.0802 29.9363 45.8302 30.2965 46.7645 30.2963C47.0709 30.2993 47.3761 30.258 47.6707 30.1738C47.951 30.0906 48.2143 29.9586 48.4484 29.7841C48.7045 29.5906 48.9317 29.362 49.1234 29.1051C49.3335 28.8298 49.5328 28.4992 49.7212 28.1135L48.4999 27.2956C48.2046 27.8511 47.9411 28.2318 47.7093 28.4375C47.4736 28.6434 47.1758 28.7463 46.8159 28.7463C46.3532 28.7463 45.9739 28.5666 45.6779 28.2071C45.3827 27.8419 45.2156 27.3506 45.1767 26.7333H49.6634L49.6698 26.3242V26.3223ZM45.273 25.3115C45.3147 25.1101 45.3839 24.9153 45.4786 24.7326C45.5626 24.5708 45.6722 24.4237 45.8032 24.2968C45.9251 24.1792 46.068 24.0853 46.2244 24.0198C46.3813 23.9551 46.5496 23.9223 46.7195 23.9235C47.4904 23.9235 47.9768 24.3865 48.1785 25.3125L45.273 25.3115ZM51.2445 30.0801H52.6962V26.4581C52.6962 25.5228 52.7946 24.8676 52.9915 24.4926C53.1932 24.112 53.5344 23.9218 54.015 23.9218C54.4564 23.9218 54.7607 24.0656 54.9279 24.3534C55.0993 24.6359 55.185 25.1471 55.185 25.887V30.0782H56.6367V25.4703C56.6367 24.4105 56.461 23.6465 56.1096 23.1784C55.7025 22.6279 55.1347 22.3526 54.4062 22.3526C53.7719 22.3526 53.202 22.6536 52.6965 23.2556V22.5642H51.2448V30.0801H51.2445ZM60.3143 22.3558C59.7701 22.3558 59.3073 22.5693 58.9259 22.9963C58.5532 23.4234 58.3668 23.9636 58.3666 24.6169C58.3666 25.1108 58.4759 25.5147 58.6944 25.8284C58.8659 26.0753 59.1617 26.3222 59.5816 26.5691C59.7314 26.6568 59.879 26.7417 60.0245 26.8237C60.17 26.9058 60.3157 26.9907 60.4617 27.0784C60.839 27.3461 61.0276 27.6341 61.0276 27.9426C61.0276 28.4779 60.7833 28.7455 60.2946 28.7453C60.0506 28.7453 59.8406 28.6473 59.6648 28.4512C59.5747 28.3532 59.444 28.1244 59.2726 27.7649L58.0386 28.4512C58.4756 29.681 59.2191 30.2957 60.2691 30.2956C60.8817 30.2956 61.4045 30.0644 61.8374 29.602C62.2832 29.1137 62.506 28.5074 62.5059 27.7831C62.5059 27.2179 62.3731 26.7685 62.1075 26.435C61.842 26.1015 61.3253 25.7367 60.5574 25.3406C59.9997 25.058 59.7209 24.7727 59.7209 24.485C59.7209 24.3205 59.768 24.1856 59.8623 24.0803C59.904 24.0307 59.9561 23.9907 60.015 23.9635C60.0739 23.9362 60.1382 23.9222 60.2031 23.9225C60.482 23.9225 60.7155 24.1513 60.9036 24.6088L62.1026 23.8453C61.7127 22.8525 61.1171 22.356 60.3158 22.3558H60.3143ZM64.4602 29.1387C65.0945 29.9106 65.8809 30.2965 66.8193 30.2963C67.7663 30.2963 68.5655 29.9182 69.2171 29.162C69.8638 28.4007 70.1874 27.4567 70.1877 26.3299C70.1877 25.2137 69.8663 24.2723 69.2235 23.5056C68.5719 22.7392 67.7792 22.356 66.8452 22.3558C65.9151 22.3558 65.1266 22.7365 64.4797 23.498C63.8327 24.2594 63.5092 25.1826 63.509 26.2676C63.509 27.4199 63.8261 28.3767 64.4602 29.138V29.1387ZM65.5015 24.586C65.8447 24.1432 66.2926 23.9218 66.8454 23.9218C67.4067 23.9218 67.8588 24.1429 68.2016 24.5852C68.5402 25.0225 68.7095 25.6064 68.7095 26.337C68.7095 27.0675 68.5402 27.6514 68.2016 28.0885C67.8631 28.5257 67.411 28.7443 66.8454 28.7443C66.2839 28.7443 65.8318 28.5231 65.489 28.0806C65.1548 27.6434 64.9877 27.0492 64.9875 26.298C64.9875 25.5985 65.1589 25.0275 65.5018 24.585L65.5015 24.586ZM71.7174 30.0801H73.1637V26.1831C73.1637 24.7528 73.5579 24.0378 74.3464 24.0379C74.6077 24.0379 74.8756 24.1562 75.15 24.3928L75.8121 22.8031C75.3963 22.5049 74.9978 22.3557 74.6166 22.3556C74.3294 22.3556 74.0808 22.4199 73.8708 22.5485C73.6651 22.672 73.4294 22.9008 73.1637 23.2347V22.5642H71.7174V30.0801ZM78.4926 22.3558C77.9483 22.3558 77.4855 22.5693 77.1041 22.9963C76.7318 23.4236 76.5456 23.9638 76.5456 24.6169C76.5456 25.1108 76.6548 25.5147 76.8733 25.8284C77.0448 26.0753 77.3405 26.3222 77.7606 26.5691C77.9103 26.6568 78.058 26.7417 78.2035 26.8237C78.349 26.9058 78.4947 26.9907 78.6407 27.0784C79.018 27.3461 79.2066 27.6341 79.2066 27.9426C79.2066 28.4779 78.9623 28.7455 78.4736 28.7453C78.2295 28.7453 78.0196 28.6473 77.8437 28.4512C77.7537 28.3532 77.623 28.1244 77.4518 27.7649L76.2176 28.4512C76.6546 29.681 77.3981 30.2957 78.448 30.2956C79.0607 30.2956 79.5835 30.0644 80.0163 29.602C80.4622 29.1137 80.685 28.5074 80.6849 27.7831C80.6849 27.2179 80.5521 26.7685 80.2865 26.435C80.0209 26.1015 79.5042 25.7367 78.7364 25.3406C78.1787 25.058 77.8998 24.7727 77.8998 24.485C77.8998 24.3205 77.947 24.1856 78.0413 24.0803C78.083 24.0303 78.1354 23.9902 78.1946 23.9627C78.2537 23.9353 78.3183 23.9213 78.3836 23.9218C78.6624 23.9218 78.8959 24.1505 79.0841 24.608L80.2799 23.8441C79.8896 22.8512 79.2939 22.3548 78.4928 22.3546L78.4926 22.3558Z" fill="#CB2A30"/>
<path d="M73.4749 12.4021C73.0101 14.1781 71.6093 15.6268 70.3461 15.6374C69.0829 15.6479 68.4358 14.2175 68.9006 12.4415C69.3654 10.6655 70.7661 9.21674 72.0291 9.2062C73.2921 9.19566 73.9397 10.6261 73.4749 12.4021V12.4021Z" stroke="#CB2A30" stroke-miterlimit="10"/>
<path d="M72.1664 12.4128C71.9575 13.2104 71.3298 13.8606 70.7617 13.8658C70.1936 13.8709 69.904 13.2285 70.1126 12.4307C70.3213 11.6329 70.9492 10.9829 71.5173 10.978C72.0854 10.9731 72.375 11.6153 72.1664 12.4128Z" fill="#CB2A30"/>
</svg>
